<svg width="129" height="48" viewBox="0 0 129 48" fill="none" xmlns="http://www.w3.org/2000/svg">
<path d="M66.5255 38.6187C67.4221 38.5697 68.3187 38.7298 69.1228 39.0794C69.9008 39.4747 70.3603 40.2195 70.3158 41.0102C70.3454 41.5753 70.1639 42.134 69.7971 42.5979C69.4747 42.9867 69.0449 43.2905 68.5448 43.4865L70.7085 46.4823C70.8901 46.7567 71.1272 46.9985 71.4014 47.2043C71.6459 47.3579 71.9424 47.433 72.2425 47.4232C72.2795 47.4983 72.298 47.5767 72.298 47.6584C72.3092 47.7336 72.2943 47.8087 72.261 47.8773C71.7275 47.9851 71.1791 48.0211 70.6344 47.9884C69.8823 47.9884 69.182 47.5767 68.5336 46.7502L66.6848 44.2575C66.581 44.1007 66.4217 43.9766 66.2291 43.9112C65.8437 43.8328 65.451 43.8034 65.0582 43.823V46.136C65.0508 46.368 65.0768 46.5999 65.1323 46.8286C65.1657 46.9854 65.262 47.1226 65.4028 47.2174C65.5214 47.2925 65.6511 47.3448 65.7919 47.3742C65.9845 47.4036 66.1809 47.4199 66.381 47.4232C66.4588 47.4787 66.5032 47.5637 66.4921 47.6486C66.5069 47.7368 66.4625 47.825 66.381 47.874C65.5288 47.8577 64.7248 47.8512 63.9615 47.8512C63.1723 47.8512 62.3535 47.8577 61.5013 47.874C61.4235 47.8152 61.3828 47.7238 61.3939 47.6323C61.379 47.5408 61.4198 47.4526 61.5013 47.3938C61.6977 47.3905 61.8978 47.3742 62.0904 47.3448C62.2312 47.3154 62.3646 47.2631 62.4832 47.188C62.624 47.0965 62.7203 46.9593 62.7499 46.809C62.8018 46.5836 62.824 46.3516 62.8203 46.1229V40.4548C62.8278 40.2261 62.8018 39.9974 62.7499 39.772C62.7203 39.6184 62.624 39.4812 62.4832 39.3897C62.3683 39.3146 62.2349 39.2623 62.0941 39.2329C61.8978 39.2035 61.6977 39.1872 61.4976 39.1839C61.4198 39.1251 61.3791 39.0336 61.3902 38.9422C61.3753 38.854 61.4161 38.7658 61.4976 38.7167C61.7088 38.7167 62.5499 38.6971 64.0097 38.6677C65.4732 38.6383 66.3106 38.6187 66.5255 38.6187ZM68.0816 41.2486C68.0816 39.87 67.3925 39.1807 66.0105 39.1839C65.7177 39.1447 65.4213 39.2395 65.2287 39.4355C65.0805 39.7524 65.0212 40.0987 65.0545 40.4417V43.2546H65.74C66.355 43.2905 66.9664 43.15 67.4814 42.8527C67.8778 42.5848 68.0779 42.0523 68.0816 41.2486ZM83.1355 43.199C83.1948 44.4372 82.7205 45.6492 81.8091 46.5901C80.8532 47.5277 79.4712 48.0406 78.041 47.9818C76.7183 47.9982 75.4437 47.5506 74.4952 46.7404C73.4874 45.8943 72.9427 44.7083 72.9983 43.4832C72.9539 42.2745 73.3985 41.0886 74.2469 40.1411C74.6953 39.6511 75.2621 39.2525 75.9068 38.9748C76.5663 38.6939 77.2888 38.5501 78.0188 38.5567C79.3822 38.5273 80.6938 38.9944 81.6535 39.8504C82.6576 40.739 83.1911 41.951 83.1355 43.199ZM77.8409 39.1186C77.0554 39.1317 76.3366 39.5172 75.9661 40.1281C75.4807 40.8011 75.2362 41.8269 75.2362 43.1957C75.2362 44.496 75.5326 45.5251 76.1217 46.283C76.5923 46.9789 77.4407 47.4069 78.3633 47.4167C79.171 47.4167 79.9009 46.9985 80.2344 46.3516C80.7272 45.4663 80.9569 44.4829 80.905 43.4996C80.905 42.1078 80.6197 41.0265 80.0455 40.2653C79.5897 39.5629 78.7524 39.1284 77.8409 39.1186ZM90.8718 38.9356C90.9793 39.6478 91.0385 40.3633 91.0497 41.082C90.8125 41.2225 90.5124 41.2486 90.2494 41.1539C90.179 40.9089 90.09 40.6671 89.9826 40.4319C89.8788 40.213 89.7492 40.0007 89.601 39.8014C89.449 39.5858 89.2342 39.4126 88.9822 39.295C88.7154 39.1774 88.419 39.1153 88.1189 39.1218C87.7484 39.1055 87.389 39.2329 87.1334 39.4681C86.8777 39.7262 86.7443 40.0627 86.7702 40.4058C86.7888 40.8076 86.9926 41.1833 87.3334 41.4512C87.6817 41.7681 88.0856 42.0327 88.5302 42.2353C89.3379 42.5685 90.0752 43.0193 90.7125 43.5649C91.2312 44.0158 91.5313 44.6267 91.5536 45.2703C91.5387 46.0347 91.1312 46.7535 90.4494 47.2272C89.7677 47.7466 88.8933 48.0178 87.9929 47.9884C87.289 47.9982 86.585 47.9557 85.8847 47.8577C85.5179 47.7891 85.1437 47.7466 84.7695 47.727C84.5435 46.9658 84.4434 46.1818 84.4657 45.3977C84.7213 45.3193 84.9992 45.3029 85.266 45.3519C85.4031 45.9302 85.7476 46.4562 86.2441 46.8515C86.6702 47.2108 87.2334 47.4134 87.8225 47.4199C88.2523 47.4363 88.671 47.3219 89.0118 47.0932C89.312 46.8907 89.4861 46.5738 89.475 46.2438C89.475 45.6296 88.9933 45.0252 88.0263 44.4307C87.9077 44.3653 87.6409 44.2248 87.2297 44.0158C86.8406 43.8165 86.4627 43.6009 86.0996 43.3689C85.7736 43.1663 85.4809 42.9213 85.24 42.6404C84.851 42.1634 84.6583 41.5851 84.6917 40.9971C84.6991 40.2947 85.0918 39.638 85.7439 39.2362C86.422 38.7788 87.2593 38.5371 88.1152 38.5567C88.7154 38.5567 89.312 38.6187 89.8974 38.7396C90.4939 38.8572 90.8162 38.9226 90.8718 38.9356ZM98.9008 38.9356C99.0083 39.6478 99.0675 40.3633 99.0787 41.082C98.8415 41.2225 98.5414 41.2486 98.2783 41.1539C98.208 40.9089 98.119 40.6671 98.0116 40.4319C97.9078 40.213 97.7819 40.0007 97.6337 39.8014C97.4818 39.5858 97.2669 39.4126 97.0149 39.295C96.7481 39.1774 96.4517 39.1153 96.1553 39.1218C95.7848 39.1055 95.4254 39.2329 95.1698 39.4681C94.9141 39.7262 94.7844 40.0627 94.8067 40.4058C94.8289 40.8076 95.029 41.1833 95.3698 41.4512C95.7181 41.7681 96.122 42.0327 96.5703 42.2353C97.3743 42.5685 98.1153 43.0193 98.7526 43.5649C99.2713 44.0158 99.5714 44.6267 99.5937 45.2703C99.5788 46.0347 99.1713 46.7535 98.4895 47.2272C97.8115 47.7434 96.9334 48.0178 96.0368 47.9884C95.3328 47.9982 94.6288 47.9557 93.9285 47.8577C93.5617 47.7891 93.1875 47.7466 92.8133 47.727C92.591 46.9658 92.4872 46.1818 92.5095 45.3977C92.7651 45.3193 93.043 45.3029 93.3098 45.3519C93.4469 45.9302 93.7914 46.4562 94.2879 46.8515C94.714 47.2076 95.2772 47.4134 95.8663 47.4199C96.2961 47.4363 96.7148 47.3219 97.0557 47.0932C97.3558 46.8907 97.5299 46.5738 97.5188 46.2438C97.5188 45.6296 97.0371 45.0252 96.0701 44.4307C95.9515 44.3653 95.6848 44.2248 95.2735 44.0158C94.8845 43.8165 94.5065 43.6009 94.1434 43.3689C93.8174 43.1663 93.5247 42.9213 93.2839 42.6404C92.8948 42.1634 92.7021 41.5851 92.7355 40.9971C92.7429 40.2947 93.1356 39.638 93.7877 39.2362C94.4658 38.7788 95.3031 38.5371 96.159 38.5567C96.7593 38.5567 97.3558 38.6187 97.9412 38.7396C98.5229 38.8572 98.8452 38.9226 98.9008 38.9356ZM110.828 43.199C110.887 44.4372 110.413 45.6492 109.501 46.5901C108.545 47.5277 107.163 48.0406 105.733 47.9818C104.41 47.9982 103.136 47.5506 102.187 46.7404C101.179 45.8943 100.635 44.7083 100.69 43.4832C100.646 42.2745 101.091 41.0886 101.939 40.1411C102.387 39.6511 102.954 39.2525 103.599 38.9748C104.258 38.6939 104.981 38.5501 105.711 38.5567C107.074 38.5273 108.39 38.9944 109.346 39.8504C110.35 40.739 110.883 41.951 110.828 43.199ZM105.533 39.1186C104.747 39.1317 104.029 39.5172 103.658 40.1281C103.173 40.8011 102.928 41.8269 102.928 43.1957C102.928 44.496 103.225 45.5251 103.814 46.283C104.284 46.9789 105.133 47.4069 106.055 47.4167C106.863 47.4134 107.593 46.9985 107.926 46.3516C108.419 45.4663 108.649 44.4829 108.597 43.4996C108.597 42.1078 108.312 41.0265 107.738 40.2653C107.285 39.5629 106.444 39.1284 105.533 39.1186Z" fill="white"/>
<path d="M60.7269 31.0263C60.7232 30.3925 60.8566 29.762 61.1123 29.1674C61.3568 28.5892 61.7162 28.0534 62.1757 27.5895C62.6462 27.1223 63.2242 26.7499 63.8689 26.4983C64.5543 26.2206 65.3028 26.0801 66.0549 26.0867C66.7959 26.0736 67.5296 26.1782 68.2261 26.4003C68.8745 26.6257 69.471 26.9426 69.9972 27.3445L69.4785 27.877C69.0227 27.5241 68.5077 27.2366 67.9519 27.0276C67.3332 26.8185 66.6737 26.7172 66.0105 26.7335C65.1916 26.7237 64.3913 26.9263 63.7022 27.3216C63.0204 27.7071 62.4721 28.2494 62.1127 28.8897C61.7347 29.5562 61.5458 30.2913 61.5532 31.0329C61.5458 31.6176 61.6532 32.1992 61.8718 32.748C62.0719 33.2511 62.3794 33.7183 62.7796 34.1201C63.1872 34.5122 63.6836 34.8193 64.2394 35.0218C64.8545 35.244 65.5103 35.355 66.1735 35.3485C66.8219 35.3485 67.4629 35.244 68.0705 35.0414C68.6337 34.8617 69.1561 34.5971 69.6155 34.2606V31.5164H66.0105V30.863H70.3936V34.5481C69.8304 34.9859 69.1857 35.3322 68.4892 35.5772C67.7482 35.8483 66.9516 35.9856 66.1475 35.9823C65.3658 35.9921 64.5877 35.8582 63.8652 35.5935C63.2131 35.355 62.6277 34.9924 62.1534 34.5318C61.6903 34.0711 61.3346 33.5353 61.1012 32.9571C60.8492 32.3298 60.7232 31.6797 60.7269 31.0263ZM73.2836 35.8059V26.2435H77.815C78.4115 26.237 79.008 26.3219 79.5712 26.495C80.0529 26.6421 80.4901 26.8773 80.8532 27.1909C81.3941 27.6679 81.6868 28.318 81.6646 28.991C81.6979 29.6934 81.383 30.3729 80.7976 30.8532C80.1529 31.3465 79.3489 31.6503 78.5004 31.7255L82.061 35.8059H81.0458L77.6075 31.8463H74.0802V35.8059H73.2836ZM74.0839 31.206H77.726C78.5375 31.2387 79.3341 31.0296 79.9973 30.6147C80.5753 30.2325 80.9013 29.6281 80.8754 28.991C80.9013 28.3931 80.5975 27.8214 80.0529 27.4621C79.3822 27.057 78.5819 26.8642 77.7705 26.9034H74.0839V31.206ZM83.4986 35.8059L88.5265 26.1782H89.2897L94.3176 35.8059H93.4358L92.0649 33.1302H85.6995L84.3286 35.8059H83.4986ZM86.044 32.4834H91.7351L88.897 26.9557L86.044 32.4834ZM96.5962 35.8059V26.2435H97.3484L104.799 34.5644V26.2435H105.566V35.8059H104.962L97.3595 27.3151V35.8059H96.5962ZM108.768 35.8059V26.2435H112.358C113.151 26.237 113.94 26.3611 114.685 26.6127C115.363 26.8348 115.981 27.1778 116.508 27.6156C117.008 28.0469 117.404 28.563 117.675 29.1348C117.956 29.7326 118.101 30.3762 118.097 31.0263C118.101 31.6732 117.96 32.3135 117.675 32.9114C117.404 33.4831 117.008 33.9993 116.508 34.4305C115.985 34.8715 115.363 35.2146 114.685 35.44C113.944 35.6883 113.154 35.8124 112.358 35.8091L108.768 35.8059ZM109.568 35.1525H112.362C113.054 35.159 113.744 35.0512 114.392 34.8323C114.974 34.6396 115.503 34.3423 115.944 33.9568C116.363 33.5811 116.693 33.1368 116.915 32.6467C117.149 32.1306 117.267 31.5817 117.26 31.0263C117.263 30.4775 117.145 29.9352 116.915 29.4255C116.463 28.4128 115.544 27.6156 114.392 27.2334C113.747 27.0112 113.058 26.9002 112.362 26.9067H109.568V35.1525ZM120.82 35.8059V26.2435H128.497V26.9034H121.617V30.6604H127.804V31.3138H121.617V35.1525H128.571V35.8059H120.82Z" fill="white"/>
<path d="M25.1948 27.7463C25.1578 27.779 25.1133 27.8116 25.1059 27.8149C24.5576 28.1743 23.9499 28.4552 23.3015 28.6447C22.1159 28.9485 20.8858 29.089 19.652 29.0596C17.3659 29.0596 15.3577 28.6316 13.6312 27.779C11.9676 26.9785 10.5744 25.8024 9.58887 24.3748C8.62924 22.9765 7.89563 21.4639 7.41767 19.886C6.93601 18.2852 6.69147 16.6354 6.69888 14.979C6.69888 10.5686 7.73631 7.15137 9.81118 4.72729C11.8342 2.36855 14.5463 1.18591 17.9513 1.18591C21.5601 1.18591 24.4094 1.91117 26.4916 3.36497C28.5554 4.78936 30.0597 6.74954 30.7933 8.97107L33.146 8.69011C32.6051 6.34443 32.2123 3.97262 31.9715 1.58774C31.186 1.58774 29.3965 1.32312 26.5991 0.793871C24.0092 0.284225 21.3675 0.0196018 18.7146 0C13.2792 0 9.47772 0.757933 5.71702 3.6884C1.90445 6.63846 2.02854e-05 10.7222 2.02854e-05 15.9395C-0.00368484 18.1186 0.500209 20.278 1.47466 22.2839C2.45651 24.3192 3.86816 25.5901 5.71702 26.9491C8.37359 28.7721 12.6715 30.1834 18.4293 30.1834C20.6672 30.19 23.0088 29.9809 25.206 29.5954C25.2097 29.5823 25.2023 29.5431 25.206 29.5268V27.7463H25.1948ZM23.8906 29.9515C23.8943 29.9482 23.8981 29.9482 23.9055 29.9482V29.9057C23.9018 29.9188 23.8981 29.9351 23.8906 29.9515ZM23.8906 29.9515C23.8943 29.9482 23.8981 29.9482 23.9055 29.9482V29.9057C23.9018 29.9188 23.8981 29.9351 23.8906 29.9515ZM32.6903 21.8266L32.7125 16.1322H32.6903C31.6751 16.1518 30.508 16.178 29.189 16.2074C24.276 16.3152 21.4601 16.3707 20.7487 16.3707C20.5042 16.4883 20.3819 16.6027 20.3819 16.9947C20.3819 17.3868 20.5042 17.6546 20.7487 17.8017C21.4193 17.8147 22.0862 17.867 22.7495 17.965C23.22 18.0597 23.6646 18.2362 24.0574 18.4877C24.5242 18.7099 24.854 19.1052 24.9577 19.5626C25.1319 20.3172 25.2134 21.0882 25.1948 21.8592V29.5921L32.694 23.7247V21.8266H32.6903ZM23.8906 29.9515C23.8943 29.9482 23.8981 29.9482 23.9055 29.9482V29.9057C23.9018 29.9188 23.8981 29.9351 23.8906 29.9515Z" fill="white"/>
<path d="M57.7221 46.6228C57.7258 46.3484 57.6591 46.0739 57.5368 45.8224C56.366 45.8224 55.4064 45.5708 54.658 45.071C53.9132 44.5711 53.124 43.7479 52.2867 42.6044L44.8801 32.356C46.5845 31.6895 48.0591 30.6441 49.1633 29.3177C50.3489 27.9358 50.9417 26.1226 50.9417 23.8782C50.9603 20.9445 49.6005 18.7393 46.8624 17.2626C44.869 16.2107 41.9049 16.0473 37.9701 16.0473C37.7885 16.0473 37.4662 16.0506 37.0105 16.0571V17.3606C41.201 17.6514 43.2943 20.2584 43.2943 24.6982C43.2943 27.4457 42.6089 29.6379 41.2417 30.5526C39.8745 31.4706 37.8849 31.9247 35.2765 31.9247H32.9348V31.8921L25.2912 31.9411V41.3728C25.3134 42.1634 25.2319 42.9507 25.0503 43.725C24.9429 44.2444 24.6131 44.7116 24.1315 45.0252C23.7276 45.2801 23.2719 45.463 22.7865 45.5578C22.1159 45.6558 21.4415 45.7113 20.7635 45.7211C20.5153 45.8648 20.3893 46.1327 20.3893 46.5346C20.3448 46.7927 20.493 47.0442 20.7635 47.1553C23.6757 47.0965 26.4805 47.2827 29.1815 47.2827C31.7937 47.2827 34.554 47.0965 37.4662 47.1553C37.733 47.005 37.8626 46.9625 37.8515 46.5934C37.8812 46.2928 37.733 45.9988 37.4662 45.8158C36.7919 45.806 36.1212 45.7505 35.4543 45.646C34.9727 45.548 34.5206 45.365 34.1242 45.1069C33.6351 44.7802 33.3053 44.3065 33.1905 43.7773C33.0015 42.9965 32.9163 42.2026 32.9385 41.4054V33.2086C34.9801 33.2086 36.3176 33.3099 36.9475 33.5092C37.607 33.7314 38.1591 34.1495 38.5073 34.6951L44.8357 43.5159C47.055 46.3386 49.4486 47.7499 52.0236 47.7531C55.1507 47.7531 57.0033 47.6257 57.5887 47.3742C57.711 47.1455 57.7591 46.8809 57.7221 46.6228Z" fill="white"/>
<path d="M61.4013 23.447L62.9241 20.4773H63.2761L64.7989 23.447H64.3913L63.9986 22.6662H62.1794L61.7829 23.447H61.4013ZM62.3313 22.3689H63.8541L63.0945 20.8661L62.3313 22.3689Z" fill="white"/>
<path d="M65.4621 23.447V20.5002H68.1001V23.447H67.7222V20.8008H65.84V23.447H65.4621Z" fill="white"/>
<path d="M68.7559 23.4469L70.2787 20.4773H70.6307L72.1535 23.4469H71.7459L71.3532 22.6661H69.534L69.1375 23.4469H68.7559ZM69.6896 22.3688H71.2124L70.4529 20.866L69.6896 22.3688Z" fill="white"/>
<path d="M72.8167 23.447V20.5002H74.0691C74.4507 20.5002 74.7545 20.5852 74.9805 20.7518C75.2065 20.9217 75.3214 21.1503 75.3214 21.4411C75.3214 21.7482 75.1954 21.9834 74.9472 22.1533C74.6989 22.3232 74.384 22.4049 74.0098 22.4049H73.1983V23.4437H72.8167V23.447ZM73.1946 22.101H74.0209C74.2988 22.101 74.5211 22.0422 74.6878 21.9213C74.8545 21.8005 74.9398 21.6437 74.9398 21.4444C74.9398 21.2385 74.8582 21.0817 74.6989 20.9707C74.5396 20.8596 74.3173 20.804 74.0431 20.804H73.1983V22.101H73.1946Z" fill="white"/>
<path d="M76.8924 23.447V20.8008H75.7697V20.4969H78.3966V20.8008H77.274V23.447H76.8924Z" fill="white"/>
<path d="M78.9413 22.3526V22.0128H80.2677V22.3526H78.9413Z" fill="white"/>
<path d="M81.0532 23.447V20.5002H81.4311V22.2611L83.3504 20.5002H83.8394L82.4056 21.7907L83.9024 23.4503H83.4282L82.1425 22.0226L81.4311 22.6597V23.4503H81.0532V23.447Z" fill="white"/>
<path d="M84.4878 23.447V20.5002H85.9106C86.3034 20.5002 86.5924 20.5884 86.785 20.7616C86.9295 20.8922 86.9999 21.0523 86.9999 21.2418C86.9999 21.562 86.8221 21.7907 86.4701 21.9246C86.948 22.052 87.1852 22.2905 87.1852 22.6433C87.1852 22.8949 87.074 23.0909 86.8554 23.2314C86.6368 23.3751 86.3404 23.447 85.9699 23.447H84.4878ZM84.8584 21.8103H85.8476C86.081 21.8103 86.2663 21.7645 86.4071 21.6698C86.5479 21.5783 86.6183 21.4444 86.6183 21.2745C86.6183 21.1242 86.5553 21.0099 86.4256 20.9217C86.2959 20.8367 86.1144 20.7942 85.8773 20.7942H84.8584V21.8103ZM84.8584 23.1465H85.981C86.2367 23.1465 86.4367 23.1007 86.5812 23.006C86.7294 22.9112 86.7998 22.7806 86.7998 22.6107C86.7998 22.4473 86.7257 22.3232 86.5738 22.235C86.4219 22.1468 86.2033 22.1043 85.9106 22.1043H84.8547V23.1465H84.8584Z" fill="white"/>
<path d="M87.6483 23.4469L89.1711 20.4773H89.5231L91.0459 23.4469H90.6384L90.2456 22.6661H88.4264L88.03 23.4469H87.6483ZM88.582 22.3688H90.1048L89.3453 20.866L88.582 22.3688Z" fill="white"/>
<path d="M91.7091 23.447V20.5002H92.9615C93.3431 20.5002 93.6469 20.5852 93.8729 20.7518C94.0989 20.9217 94.2138 21.1503 94.2138 21.4411C94.2138 21.7482 94.0878 21.9834 93.8396 22.1533C93.5913 22.3232 93.2764 22.4049 92.9022 22.4049H92.0908V23.4437H91.7091V23.447ZM92.0871 22.101H92.9133C93.1912 22.101 93.4135 22.0422 93.5802 21.9213C93.747 21.8005 93.8322 21.6437 93.8322 21.4444C93.8322 21.2385 93.7507 21.0817 93.5913 20.9707C93.432 20.8596 93.2134 20.804 92.9355 20.804H92.0908V22.101H92.0871Z" fill="white"/>
<path d="M95.7848 23.447V20.8008H94.6621V20.4969H97.289V20.8008H96.1664V23.447H95.7848Z" fill="white"/>
<path d="M97.7077 23.4469L99.2305 20.4773H99.5825L101.105 23.4469H100.698L100.305 22.6661H98.4858L98.0894 23.4469H97.7077ZM98.6414 22.3688H100.164L99.4047 20.866L98.6414 22.3688Z" fill="white"/>
<path d="M101.706 23.4797C101.557 23.4797 101.409 23.4568 101.272 23.4078L101.35 23.1366C101.42 23.166 101.52 23.1791 101.646 23.1791C101.709 23.1791 101.769 23.1693 101.817 23.153C101.869 23.1334 101.928 23.0844 101.998 23.0027C102.069 22.921 102.124 22.8067 102.169 22.6629C102.213 22.5192 102.254 22.3068 102.287 22.0259C102.321 21.7449 102.339 21.415 102.339 21.0327V20.4969H104.503V23.4437H104.125V20.7975H102.702V21.1177C102.702 21.5162 102.684 21.8625 102.647 22.1533C102.61 22.4441 102.561 22.676 102.502 22.8426C102.443 23.0092 102.369 23.1432 102.276 23.2412C102.187 23.3392 102.095 23.4045 102.009 23.4339C101.924 23.4666 101.82 23.4797 101.706 23.4797Z" fill="white"/>
</svg>
